# AST/ASF file generated using VICON BodyLanguage
# -----------------------------------------------
:version 1.10
:name VICON
:units
  mass 1.0
  length 0.45
  angle deg
:documentation
   .ast/.asf automatically generated from VICON data using
   VICON BodyBuilder and BodyLanguage model FoxedUp or BRILLIANT.MOD
:root
   order TX TY TZ RX RY RZ
   axis XYZ
   position 0 0 0  
   orientation 0 0 0 
:bonedata
  begin
     id 1 
     name lhipjoint
     direction 0.643824 -0.71708 0.266994 
     length 2.52133 
     axis 0 0 0  XYZ
  end
  begin
     id 2 
     name lfemur
     direction 0.34202 -0.939693 0  
     length 7.51824  
     axis 0 0 20  XYZ
    dof rx ry rz
    limits (-160.0 20.0)
           (-70.0 70.0)
           (-60.0 70.0)
  end
  begin
     id 3 
     name ltibia
     direction 0.34202 -0.939693 0   
     length 7.3685   
     axis 0 0 20   XYZ
    dof rx
    limits (-10.0 170.0)
  end
  begin
     id 4 
     name lfoot
     direction 0.105419 -0.289636 0.951314   
     length 2.20972   
     axis -90 7.62852e-016 20   XYZ
    dof rx rz
    limits (-45.0 90.0)
           (-70.0 20.0)
  end
  begin
     id 5 
     name ltoes
     direction 1.53549e-011 -4.21833e-011 1   
     length 1.10139   
     axis -90 7.62852e-016 20   XYZ
    dof rx
    limits (-90.0 20.0)
  end
  begin
     id 6 
     name rhipjoint
     direction -0.608823 -0.743445 0.276811   
     length 2.43192  
     axis 0 0 0  XYZ 
  end
  begin
     id 7 
     name rfemur
     direction -0.34202 -0.939693 0   
     length 7.69715   
     axis 0 0 -20   XYZ
    dof rx ry rz
    limits (-160.0 20.0)
           (-70.0 70.0)
           (-70.0 60.0)
  end
  begin
     id 8 
     name rtibia
     direction -0.34202 -0.939693 0   
     length 7.44924   
     axis 0 0 -20   XYZ
    dof rx
    limits (-10.0 170.0)
 end
 begin
     id 9 
     name rfoot
     direction -0.103614 -0.284677 0.953007   
     length 2.22623  
     axis -90 -7.62852e-016 -20   XYZ
    dof rx rz
    limits (-45.0 90.0)
           (-20.0 70.0)
  end
  begin
     id 10 
     name rtoes
     direction -1.53537e-011 -4.22026e-011 1   
     length 1.11   
     axis -90 -7.62852e-016 -20   XYZ
    dof rx
    limits (-90.0 20.0)
  end
  begin
     id 11 
     name lowerback
     direction -0.0101212 0.99662 -0.0815298   
     length 2.08277   
     axis 0 0 0   XYZ
    dof rx ry rz
    limits (-20.0 45.0)
           (-30.0 30.0)
           (-30.0 30.0)
  end
  begin
     id 12 
     name upperback
     direction 0.024314 0.999591 -0.0150645   
     length 2.08524   
     axis 0 0 0   XYZ
    dof rx ry rz
    limits (-20.0 45.0)
           (-30.0 30.0)
           (-30.0 30.0)
  end
  begin
     id 13 
     name thorax
     direction 0.0285959 0.999323 0.0231357   
     length 2.09645   
     axis 0 0 0   XYZ
    dof rx ry rz
    limits (-20.0 45.0)
           (-30.0 30.0)
           (-30.0 30.0)
  end
  begin
     id 14 
     name lowerneck
     direction -0.065512 0.979301 0.191515   
     length 1.63798   
     axis 0 0 0   XYZ
    dof rx ry rz
    limits (-20.0 45.0)
           (-30.0 30.0)
           (-30.0 30.0)
  end
  begin
     id 15 
     name upperneck
     direction 0.0498479 0.98191 -0.182667   
     length 1.68731   
     axis 0 0 0   XYZ
    dof rx ry rz
    limits (-20.0 45.0)
           (-30.0 30.0)
           (-30.0 30.0)
  end
  begin
     id 16
     name head
     direction 0.0230358 0.996257 -0.0833175  
     length 1.69785  
     axis 0 0 0   XYZ
    dof rx ry rz
    limits (-20.0 45.0)
           (-30.0 30.0)
           (-30.0 30.0)
  end
  begin
     id 17 
     name lclavicle
     direction 0.967963 0.201165 -0.150269  
     length 3.63976  
     axis 0 0 0   XYZ
    dof ry rz
    limits (-20.0 10.0)
           (0.0 20.0)
  end
  begin
     id 18 
     name lhumerus
     direction 1 -4.48954e-011 -2.92837e-028   
     length 5.32462   
     axis 180 -30 -90   XYZ
    dof rx ry rz
    limits (-60.0 90.0)
           (-90.0 90.0)
           (-90.0 90.0)
  end
  begin
     id 19
     name lradius
     direction 1 -4.48958e-011 -6.39511e-027   
     length 3.48402   
     axis 180 -30 -90   XYZ
    dof rx
    limits (-10.0 170.0)
  end
  begin
     id 20
     name lwrist
     direction 1 -4.48975e-011 -1.1413e-026   
     length 1.74201   
     axis 6.88575e-015 90 90   XYZ
    dof ry
    limits (-180.0 0.0)
 end
  begin
     id 21 
     name lhand
     direction 1 -4.48899e-011 -2.28192e-026   
     length 0.572476   
     axis 1.45643e-014 90 90   XYZ
    dof rx rz
    limits (-90.0 90.0)
           (-45.0 45.0)
  end
  begin
     id 22 
     name lfingers
     direction 1 -4.49155e-011 -4.5684e-026   
     length 0.461545   
     axis 2.91283e-014 90 90   XYZ
    dof rx
    limits (0.0 90.0)
  end
  begin
     id 23
     name lthumb
     direction 0.707107 -6.34943e-011 0.707107   
     length 0.662688   
     axis -90 45 -2.25915e-014   XYZ
    dof rx rz
    limits (-45.0 45.0)
           (-45.0 45.0)
  end
  begin
     id 24 
     name rclavicle
     direction -0.964103 0.264019 -0.0282629   
     length 3.54491  
     axis 0 0 0   XYZ 
    dof ry rz
    limits (-10.0 20.0)
           (-20.0 0.0)
  end
  begin
     id 25 
     name rhumerus
     direction -1 -4.48964e-011 -2.45032e-027  
     length 5.33589   
     axis 180 30 90   XYZ
    dof rx ry rz
    limits (-90.0 60.0)
           (-90.0 90.0)
           (-90.0 90.0)
  end
  begin
     id 26 
     name rradius
     direction -1 -4.48987e-011 -1.55093e-027   
     length 3.64134   
     axis 180 30 90   XYZ
    dof rx
    limits (-10.0 170.0)
  end
  begin
     id 27 
     name rwrist
     direction -1 -4.4897e-011 -1.14128e-026   
     length 1.82067   
     axis 6.88575e-015 -90 -90   XYZ
    dof ry
    limits (-180.0 0.0)
  end
  begin
     id 28
     name rhand
     direction -1 -4.49021e-011 -2.28301e-026   
     length 0.734811   
     axis 1.45643e-014 -90 -90   XYZ
    dof rx rz
    limits (-90.0 90.0)
           (-45.0 45.0)
  end
  begin
     id 29
     name rfingers
     direction -1 -4.48862e-011 -4.56319e-026   
     length 0.592424   
     axis 2.91283e-014 -90 -90   XYZ
    dof rx
    limits (0.0 90.0)
  end
  begin
     id 30
     name rthumb
     direction -0.707107 -6.34978e-011 0.707107   
     length 0.850605   
     axis -90 -45 2.25915e-014   XYZ
    dof rx rz
    limits (-45.0 45.0)
           (-45.0 45.0)
  end
:hierarchy
  begin
    root lhipjoint rhipjoint lowerback
    lhipjoint lfemur
    lfemur ltibia
    ltibia lfoot
    lfoot ltoes
    rhipjoint rfemur
    rfemur rtibia
    rtibia rfoot
    rfoot rtoes
    lowerback upperback
    upperback thorax
    thorax lowerneck lclavicle rclavicle
    lowerneck upperneck
    upperneck head
    lclavicle lhumerus
    lhumerus lradius
    lradius lwrist
    lwrist lhand lthumb
    lhand lfingers
    rclavicle rhumerus
    rhumerus rradius
    rradius rwrist
    rwrist rhand rthumb
    rhand rfingers
  end

#!OML:ASF F:\VICON\USERDATA\INSTALL\rory3\rory3.ASF
:FULLY-SPECIFIED
:DEGREES
39
root 0.170519 17.7829 12.0641 -170.619 -3.8792 177.427
lowerback -1.11724 -1.20952 -4.2405
upperback -1.37938 -1.61122 1.68072
thorax -0.62771 -0.77606 4.09963
lowerneck -14.1274 3.10438 -10.6476
upperneck 40.2305 1.73109 3.3222
head 16.7519 -2.14739 3.19221
rclavicle 9.93923e-015 9.14409e-015
rhumerus -33.7453 -7.85132 -77.6431
rradius 33.4132
rwrist 18.8333
rhand -17.9354 3.25885
rfingers 7.12502
rthumb 8.33266 -26.5568
lclavicle 9.93923e-015 9.14409e-015
lhumerus -33.4073 9.87864 81.6532
lradius 29.3327
lwrist -4.48202
lhand -17.4378 24.852
lfingers 7.12502
lthumb 8.8129 54.648
rfemur -17.8791 3.96237 21.4782
rtibia 31.7759
rfoot -21.0141 -2.34028
rtoes 14.9353
lfemur -13.3974 -6.20965 -22.5228
ltibia 22.4372
lfoot -14.5296 1.54775
ltoes -8.81503
40
root 0.171575 17.7804 12.0642 -170.607 -3.85496 177.429
lowerback -1.09391 -1.21548 -4.24962
upperback -1.42951 -1.62202 1.6955
thorax -0.690717 -0.779423 4.12134
lowerneck -14.069 3.14879 -10.655
upperneck 40.2749 1.76952 3.31882
head 16.7566 -2.14423 3.19602
rclavicle -4.17448e-015 3.18055e-015
rhumerus -33.8388 -7.72298 -77.6616
rradius 33.4502
rwrist 18.8015
rhand -18.0036 3.34765
rfingers 7.12502
rthumb 8.26686 -26.4706
lclavicle -4.17448e-015 3.18055e-015
lhumerus -33.525 9.9883 81.6368
lradius 29.3564
lwrist -4.50407
lhand -17.5318 24.7313
lfingers 7.12502
lthumb 8.72215 54.5311
rfemur -17.9324 3.93608 21.4835
rtibia 31.83
rfoot -21.0138 -2.4106
rtoes 14.2943
lfemur -13.4065 -5.99481 -22.5711
ltibia 22.4087
lfoot -14.4974 1.59985
ltoes -10.1608
41
root 0.173095 17.7833 12.0646 -170.594 -3.8151 177.442
lowerback -1.08678 -1.21342 -4.25817
upperback -1.41364 -1.61898 1.71335
thorax -0.677967 -0.778257 4.14463
lowerneck -14.1714 3.1525 -10.6702
upperneck 40.2924 1.8072 3.31939
head 16.7884 -2.12879 3.20819
rclavicle -3.29983e-014 -4.77083e-015
rhumerus -33.7796 -7.65401 -77.6907
rradius 33.5026
rwrist 18.7439
rhand -17.9991 3.33653
rfingers 7.12502
rthumb 8.27122 -26.4815
lclavicle -3.29983e-014 -4.77083e-015
lhumerus -33.4677 10.0986 81.628
lradius 29.2971
lwrist -4.54923
lhand -17.5533 24.4334
lfingers 7.12502
lthumb 8.70143 54.234
rfemur -17.9652 3.93584 21.4955
rtibia 31.8236
rfoot -20.9324 -2.44796
rtoes 14.27
lfemur -13.427 -5.8334 -22.5763
ltibia 22.4179
lfoot -14.4602 1.52781
ltoes -10.5308
42
root 0.174199 17.7882 12.0625 -170.599 -3.83048 177.447
lowerback -1.06562 -1.22247 -4.26457
upperback -1.39556 -1.63107 1.72428
thorax -0.669489 -0.784544 4.15967
lowerneck -14.231 3.15393 -10.632
upperneck 40.2825 1.83943 3.27151
head 16.7971 -2.1117 3.18704
rclavicle 2.01269e-014 -3.02153e-014
rhumerus -33.7385 -7.65803 -77.7
rradius 33.5323
rwrist 18.7329
rhand -18.007 3.51019
rfingers 7.12502
rthumb 8.26353 -26.3082
lclavicle 2.01269e-014 -3.02153e-014
lhumerus -33.4365 10.1741 81.6183
lradius 29.2912
lwrist -4.50716
lhand -17.4858 24.2559
lfingers 7.12502
lthumb 8.76655 54.0538
rfemur -17.8939 3.9131 21.5037
rtibia 31.7189
rfoot -20.901 -2.38549
rtoes 14.5988
lfemur -13.4478 -5.99346 -22.5242
ltibia 22.5084
lfoot -14.5151 1.45892
ltoes -9.28945
43
root 0.173901 17.8064 12.0587 -170.627 -3.86954 177.512
lowerback -1.0429 -1.23756 -4.18449
upperback -1.38766 -1.6525 1.75701
thorax -0.673002 -0.796002 4.14855
lowerneck -14.2779 3.172 -10.6157
upperneck 40.3358 1.88711 3.19794
head 16.8361 -2.10691 3.15954
rclavicle 8.84592e-015 3.73715e-014
rhumerus -33.7367 -7.56282 -77.7191
rradius 33.5481
rwrist 18.6918
rhand -18.0732 3.47343
rfingers 7.12502
rthumb 8.1997 -26.3475
lclavicle 8.84592e-015 3.73715e-014
lhumerus -33.4682 10.1951 81.656
lradius 29.3606
lwrist -4.41036
lhand -17.3471 24.4007
lfingers 7.12502
lthumb 8.90042 54.193
rfemur -17.7444 3.83882 21.5807
rtibia 31.5432
rfoot -20.816 -2.30198
rtoes 15.0109
lfemur -13.4652 -6.45306 -22.3347
ltibia 22.6539
lfoot -14.6393 1.35919
ltoes -6.10603
44
root 0.174948 17.8008 12.059 -170.631 -3.84598 177.496
lowerback -1.01446 -1.22879 -4.19517
upperback -1.41156 -1.64254 1.74948
thorax -0.714539 -0.789621 4.14796
lowerneck -14.2935 3.18933 -10.5936
upperneck 40.4198 1.89344 3.16987
head 16.8865 -2.11794 3.14359
rclavicle -2.13197e-014 2.62396e-014
rhumerus -33.8011 -7.55329 -77.7251
rradius 33.5508
rwrist 18.6966
rhand -18.1049 3.41678
rfingers 7.12502
rthumb 8.16913 -26.4053
lclavicle -2.13197e-014 2.62396e-014
lhumerus -33.5321 10.1012 81.6984
lradius 29.4241
lwrist -4.34876
lhand -17.2414 24.5937
lfingers 7.12502
lthumb 9.00243 54.3816
rfemur -17.7096 3.79071 21.5732
rtibia 31.4299
rfoot -20.6874 -2.28726
rtoes 15.0291
lfemur -13.5096 -6.37116 -22.3666
ltibia 22.7694
lfoot -14.7046 1.36485
ltoes -6.46908
45
root 0.177004 17.7974 12.0585 -170.638 -3.81974 177.445
lowerback -0.988247 -1.20921 -4.25789
upperback -1.43032 -1.61749 1.7303
thorax -0.750107 -0.775334 4.16469
lowerneck -14.2243 3.18128 -10.5847
upperneck 40.4236 1.85626 3.16374
head 16.875 -2.1366 3.13088
rclavicle -1.38155e-014 1.03368e-014
rhumerus -33.8193 -7.61828 -77.7087
rradius 33.5079
rwrist 18.7247
rhand -18.1127 3.41343
rfingers 7.12502
rthumb 8.16153 -26.409
lclavicle -1.38155e-014 1.03368e-014
lhumerus -33.5707 10.0624 81.7103
lradius 29.4139
lwrist -4.41618
lhand -17.3638 24.6345
lfingers 7.12502
lthumb 8.8843 54.4274
rfemur -17.7063 3.75985 21.5343
rtibia 31.4104
rfoot -20.6437 -2.34631
rtoes 14.7513
lfemur -13.5232 -6.19685 -22.4436
ltibia 22.8004
lfoot -14.7363 1.26879
ltoes -6.96009
46
root 0.179092 17.7946 12.0575 -170.655 -3.81561 177.461
lowerback -0.99208 -1.19691 -4.25976
upperback -1.4083 -1.60011 1.73466
thorax -0.726908 -0.76738 4.17
lowerneck -14.2126 3.16754 -10.56
upperneck 40.3996 1.84123 3.14018
head 16.8616 -2.13838 3.11332
rclavicle 7.55382e-015 -2.94201e-014
rhumerus -33.7982 -7.63394 -77.7316
rradius 33.5237
rwrist 18.672
rhand -18.1301 3.40391
rfingers 7.12502
rthumb 8.1448 -26.4191
lclavicle 7.55382e-015 -2.94201e-014
lhumerus -33.5603 10.0161 81.7323
lradius 29.4324
lwrist -4.38813
lhand -17.511 24.4795
lfingers 7.12502
lthumb 8.74222 54.2784
rfemur -17.6819 3.81045 21.5476
rtibia 31.4638
rfoot -20.7471 -2.27711
rtoes 14.9418
lfemur -13.486 -6.16967 -22.4227
ltibia 22.7573
lfoot -14.7696 1.2358
ltoes -7.08324
47
root 0.180155 17.7847 12.0581 -170.629 -3.80595 177.435
lowerback -1.01426 -1.18221 -4.25486
upperback -1.4215 -1.58011 1.70722
thorax -0.730998 -0.757239 4.13864
lowerneck -14.1857 3.17838 -10.4217
upperneck 40.4253 1.86234 2.97305
head 16.8741 -2.13719 3.0155
rclavicle -5.1684e-015 -3.97569e-015
rhumerus -33.8503 -7.725 -77.729
rradius 33.579
rwrist 18.7451
rhand -18.0575 3.28524
rfingers 7.12502
rthumb 8.21485 -26.5351
lclavicle -5.1684e-015 -3.97569e-015
lhumerus -33.6048 9.91745 81.7462
lradius 29.5026
lwrist -4.36403
lhand -17.5045 24.4512
lfingers 7.12502
lthumb 8.74855 54.2499
rfemur -17.7524 3.83478 21.5122
rtibia 31.5819
rfoot -20.8146 -2.22607
rtoes 14.856
lfemur -13.4821 -6.05809 -22.4723
ltibia 22.6709
lfoot -14.7113 1.26267
ltoes -8.10485
48
root 0.181834 17.7945 12.0578 -170.609 -3.85262 177.422
lowerback -0.982361 -1.17945 -4.23887
upperback -1.44775 -1.5784 1.67615
thorax -0.777321 -0.755076 4.09855
lowerneck -14.108 3.17652 -10.2852
upperneck 40.3798 1.85621 2.85062
head 16.8356 -2.13182 2.93325
rclavicle -1.80397e-014 -2.38542e-015
rhumerus -33.9246 -7.82885 -77.7441
rradius 33.6657
rwrist 18.7979
rhand -17.9175 3.108
rfingers 7.12502
rthumb 8.34995 -26.707
lclavicle -1.80397e-014 -2.38542e-015
lhumerus -33.6401 9.78723 81.7511
lradius 29.5464
lwrist -4.29587
lhand -17.5009 24.6096
lfingers 7.12502
lthumb 8.75196 54.4082
rfemur -17.7822 3.74978 21.5132
rtibia 31.6044
rfoot -20.8435 -2.2127
rtoes 14.774
lfemur -13.4429 -6.6825 -22.3277
ltibia 22.6183
lfoot -14.7034 1.19718
ltoes -4.41119
